<?xml version="1.0" encoding="utf-8"?>
<!-- Generator: Adobe Illustrator 26.0.3, SVG Export Plug-In . SVG Version: 6.00 Build 0)  -->
<svg version="1.1" id="Layer_1" xmlns="http://www.w3.org/2000/svg" xmlns:xlink="http://www.w3.org/1999/xlink" x="0px" y="0px"
	 viewBox="0 0 111 132" style="enable-background:new 0 0 111 132;" xml:space="preserve">
<style type="text/css">
	.st0{fill:#518AC8;}
	.st1{fill:#FEE600;}
	.st2{fill:#EF412E;}
</style>
<g>
	<g>
		<g>
			<g>
				<g>
					<path class="st0" d="M82.91,64.32c-1.31-7.53-4.57-18.92-6.16-24.25c-0.54-1.79-1.78-2.62-2.71-2.87
						c-0.98-0.27-2.74-0.34-4.13,1.45c-0.32,0.41-2.41,2.87-3.99,4.75c2.15,7.8,4.45,17.8,4.95,22.81
						C72,77.36,66.05,86.78,57.5,91.41c-3.22,1.74-18.51,9.21-18.52,9.21c1.3,0.7,2.78,0.86,3.97,0.6
						c2.33-0.52,17.83-5.7,23.69-7.73C76.2,90.17,85.44,78.86,82.91,64.32z"/>
				</g>
				<g>
					<path class="st1" d="M70.88,66.21c-0.5-5.02-2.8-15.01-4.95-22.81c-0.99-3.58-1.95-6.69-2.69-8.65
						c-0.44-1.16-1.4-2.22-2.76-2.51c-1.72-0.36-2.97,0.3-3.94,1.47c-0.37,0.45-2.44,2.86-4.07,4.79
						c3.84,12.81,5.65,23.87,6.17,28.61c0.72,6.53-1.42,14.87-7.52,20.95c-2.21,2.2-13.6,10.6-14.01,11.02l0,0
						c0,0,0.68,0.9,1.85,1.53c0,0,0.01,0.01,0.01,0.01c0,0,0.01,0,0.01,0.01c0.01,0,15.3-7.47,18.52-9.21
						C66.05,86.78,72,77.36,70.88,66.21z"/>
				</g>
				<g>
					<path class="st2" d="M58.63,67.11c-0.52-4.74-2.33-15.8-6.17-28.61c-0.75-2.5-1.57-5.06-2.48-7.65
						c-0.67-1.92-1.86-2.8-3.15-2.99c-1.67-0.24-2.79,0.42-3.78,1.6c-3.8,4.55-11.8,14.01-14.06,16.67
						c-1.16,1.53-1.6,3.08-1.15,5.58c0,0,7.76,42.81,7.84,43.59c0.25,2.36,0.97,3.18,1.42,3.78l0,0c0.41-0.42,11.8-8.81,14.01-11.02
						C57.21,81.98,59.35,73.64,58.63,67.11z"/>
				</g>
			</g>
		</g>
	</g>
</g>
</svg>
