<?xml version="1.0" encoding="UTF-8"?>
<svg width="668px" height="620px" viewBox="0 0 668 620" version="1.1" xmlns="http://www.w3.org/2000/svg" xmlns:xlink="http://www.w3.org/1999/xlink">
    <title>Metlife</title>
    <g id="Metlife" stroke="none" stroke-width="1" fill="none" fill-rule="evenodd">
        <g id="metlife_eng_logo_rgb-01" transform="translate(45.000000, 198.000000)">
            <rect id="Rectangle" x="0" y="0" width="577" height="224"></rect>
            <g id="Group" transform="translate(63.000000, 64.000000)" fill-rule="nonzero">
                <path d="M356.785275,31.2204651 C352.530416,31.2204651 349.018469,27.7013953 349.018469,23.4303876 C349.018469,19.1668992 352.530416,15.6478295 356.785275,15.6478295 C361.152696,15.6478295 364.559584,19.0616279 364.559584,23.4303876 C364.55208,27.7013953 361.040133,31.2204651 356.785275,31.2204651 Z M137.543744,81.3521705 L151.328885,81.3521705 L152.957288,39.8226357 L166.930033,64.4711628 L174.396672,64.4711628 L187.603993,39.5368992 L189.42,81.3521705 L203.873012,81.3521705 L200.908869,17.3772868 L187.123727,17.3772868 L170.854709,47.3946512 L154.202978,17.3772868 L140.515391,17.3772868 L137.543744,81.3521705 Z M248.485241,67.7345736 C247.464676,68.5015504 245.836273,69.4113953 243.607537,70.4716279 C241.371298,71.5243411 238.467188,72.0506977 234.895208,72.0506977 C231.255691,72.0506977 228.40411,71.1408527 226.325458,69.3136434 C224.254309,67.4939535 223.181215,65.365969 223.121181,62.9372093 L255.088902,62.9372093 L255.088902,60.6362791 C255.088902,56.8615504 254.608636,53.3951163 253.655607,50.2294574 C252.695075,47.0637984 251.276789,44.3493023 249.393245,42.0784496 C247.5097,39.8075969 245.198419,38.0330233 242.451897,36.7547287 C239.705374,35.4764341 236.516106,34.8372868 232.876589,34.8372868 C229.237072,34.8372868 225.98777,35.4914729 223.113677,36.799845 C220.239584,38.1082171 217.81574,39.8527132 215.842146,42.025814 C213.861048,44.1989147 212.345208,46.7404651 211.294626,49.6504651 C210.244043,52.5604651 209.711248,55.5832558 209.711248,58.7113178 C209.711248,62.2905426 210.266556,65.5689922 211.384676,68.5391473 C212.502795,71.5168217 214.131198,74.0583721 216.269884,76.1637984 C218.408569,78.2767442 221.005008,79.9234884 224.066705,81.104031 C227.128403,82.2845736 230.572812,82.8786047 234.407438,82.8786047 C237.281531,82.8786047 239.832945,82.607907 242.061681,82.0589922 C244.29792,81.5175969 246.226489,80.8934884 247.854892,80.1866667 C249.483295,79.4873643 250.804027,78.7655039 251.824592,78.0286047 C252.845158,77.2917054 253.610582,76.7653488 254.120865,76.4495349 L248.485241,67.7345736 Z M223.113677,54.1094574 C223.113677,53.1469767 223.323794,52.1769767 223.736522,51.1844186 C224.149251,50.1918605 224.757088,49.2820155 225.552529,48.4548837 C226.34797,47.6202326 227.353527,46.935969 228.569201,46.3945736 C229.777371,45.8531783 231.188153,45.5824806 232.779035,45.5824806 C234.377421,45.5824806 235.743178,45.8531783 236.898819,46.3945736 C238.046955,46.935969 239.007488,47.6277519 239.772912,48.4548837 C240.538336,49.2895349 241.116156,50.1993798 241.491364,51.1844186 C241.874077,52.1769767 242.069185,53.1469767 242.069185,54.1094574 L223.113677,54.1094574 Z M301.854825,81.3521705 L343.855607,81.3521705 L343.855607,69.5091473 L316.315341,69.5091473 L316.315341,17.3772868 L301.862329,17.3772868 L301.862329,81.3521705 L301.854825,81.3521705 Z M349.896456,81.3521705 L363.681597,81.3521705 L363.681597,36.3712403 L356.785275,36.3712403 L349.896456,36.3712403 L349.896456,81.3521705 Z M410.470033,20.3474419 C408.428902,18.6179845 406.162646,17.4073643 403.671265,16.7005426 C401.179884,15.9937209 398.726023,15.6478295 396.30218,15.6478295 C394.005907,15.6478295 391.754659,16.0162791 389.55594,16.7531783 C387.357221,17.4900775 385.391131,18.6104651 383.672679,20.1068217 C381.946722,21.6106977 380.565957,23.5131008 379.50787,25.814031 C378.457288,28.1149612 377.924493,30.8670543 377.924493,34.0627907 L377.924493,36.3637209 L370.652962,36.3637209 L370.652962,47.1991473 L377.924493,47.1991473 L377.924493,81.3446512 L391.61208,81.3446512 L391.61208,47.1991473 L402.23797,47.1991473 L402.23797,36.3637209 L391.61208,36.3637209 L391.61208,33.8672868 C391.61208,31.6265116 392.182396,29.9045736 393.338037,28.6864341 C394.486173,27.475814 396.017022,26.8667442 397.930582,26.8667442 C399.138752,26.8667442 400.324409,27.0622481 401.472546,27.4382171 C402.620682,27.8217054 403.671265,28.3706202 404.631797,29.0699225 L410.470033,20.3474419 Z M291.146389,69.3587597 C290.253394,69.997907 289.292862,70.5543411 288.272296,71.0355814 C287.25173,71.5168217 286.036057,71.7574419 284.632779,71.7574419 C282.779251,71.7574419 281.428502,71.1634109 280.565524,69.9828682 C279.702546,68.8023256 279.274809,67.1179845 279.274809,64.9448837 L279.274809,47.1991473 L290.853727,47.1991473 L290.853727,36.3637209 L279.274809,36.3637209 L279.274809,24.310155 L265.489667,24.310155 L265.489667,36.3637209 L258.383228,36.3637209 L258.383228,47.1991473 L265.489667,47.1991473 L265.489667,64.177907 C265.489667,66.990155 265.774825,69.5467442 266.352646,71.8551938 C266.930466,74.156124 267.883494,76.1262016 269.226739,77.7503876 C270.562479,79.382093 272.318453,80.6603876 274.494659,81.5852713 C276.663361,82.510155 279.342346,82.9763566 282.531614,82.9763566 C287.634443,82.9763566 292.362063,81.2468992 296.699468,77.7955039 L291.146389,69.3587597 Z M443.705957,67.7345736 C442.685391,68.5015504 441.056988,69.4113953 438.828253,70.4716279 C436.592013,71.5243411 433.687903,72.0506977 430.115923,72.0506977 C426.476406,72.0506977 423.624825,71.1408527 421.546173,69.3136434 C419.475025,67.4939535 418.40193,65.365969 418.341897,62.9372093 L450.309617,62.9372093 L450.309617,60.6362791 C450.309617,56.8615504 449.829351,53.3951163 448.876323,50.2294574 C447.91579,47.0637984 446.497504,44.3493023 444.61396,42.0784496 C442.730416,39.8075969 440.419135,38.0330233 437.672612,36.7547287 C434.92609,35.4764341 431.736822,34.8372868 428.097304,34.8372868 C424.457787,34.8372868 421.208486,35.4914729 418.334393,36.799845 C415.4603,38.1082171 413.036456,39.8527132 411.062862,42.025814 C409.081764,44.1989147 407.565923,46.7404651 406.515341,49.6504651 C405.464759,52.5604651 404.931963,55.5832558 404.931963,58.7113178 C404.931963,62.2905426 405.487271,65.5689922 406.605391,68.5391473 C407.723511,71.5168217 409.351913,74.0583721 411.490599,76.1637984 C413.629285,78.2767442 416.225724,79.9234884 419.294925,81.104031 C422.356622,82.2845736 425.801032,82.8786047 429.635657,82.8786047 C432.50975,82.8786047 435.061165,82.607907 437.2899,82.0589922 C439.52614,81.5175969 441.454709,80.8934884 443.083111,80.1866667 C444.711514,79.4873643 446.032246,78.7655039 447.052812,78.0286047 C448.073378,77.2917054 448.838802,76.7653488 449.349085,76.4495349 L443.705957,67.7345736 Z M418.341897,54.1094574 C418.341897,53.1469767 418.544509,52.1769767 418.964742,51.1844186 C419.377471,50.1918605 419.985308,49.2820155 420.780749,48.4548837 C421.57619,47.6202326 422.581747,46.935969 423.797421,46.3945736 C425.005591,45.8531783 426.416373,45.5824806 428.007255,45.5824806 C429.605641,45.5824806 430.971398,45.8531783 432.119534,46.3945736 C433.267671,46.935969 434.228203,47.6277519 434.993627,48.4548837 C435.759052,49.2895349 436.336872,50.1993798 436.719584,51.1844186 C437.102296,52.1769767 437.297404,53.1469767 437.297404,54.1094574 L418.341897,54.1094574 Z" id="Shape" fill="#000000"></path>
                <g>
                    <path d="M52.5666389,31.4610853 C63.4101498,45.8456589 69.8412146,63.7643411 69.8412146,83.1944186 C69.8412146,87.8865116 69.4585025,92.4808527 68.7381032,96.9699225 L100.128003,96.9699225 C102.859517,96.9699225 105.073245,94.744186 105.073245,92.0071318 L105.073245,5.0379845 C105.073245,1.79713178 102.026556,-0.601550388 98.9048253,0.225581395 C80.1669384,5.18085271 63.9429451,16.3772093 52.5666389,31.4610853 Z" id="XMLID_5_" fill="#A4CE4E"></path>
                    <path d="M36.3951747,96.9624031 C35.6747754,92.4808527 35.2920632,87.8789922 35.2920632,83.1868992 C35.2920632,63.7568217 41.7306323,45.8381395 52.5666389,31.4535659 C41.1978369,16.3772093 24.9738436,5.18085271 6.22845258,0.225581395 C3.10672213,-0.601550388 0.0600332779,1.79713178 0.0600332779,5.0379845 L0.0600332779,91.9996124 C0.0600332779,94.744186 2.2737604,96.9624031 5.00527454,96.9624031 L36.3951747,96.9624031 L36.3951747,96.9624031 Z" id="XMLID_4_" fill="#0090DA"></path>
                    <path d="M52.5666389,31.4610853 C41.7231281,45.8456589 35.2920632,63.7643411 35.2920632,83.1944186 C35.2920632,87.8865116 35.6747754,92.4808527 36.3951747,96.9699225 L68.7456073,96.9699225 C69.4660067,92.4883721 69.8487188,87.8865116 69.8487188,83.1944186 C69.8487188,63.7643411 63.4101498,45.8456589 52.5666389,31.4610853 Z" id="XMLID_2_" fill="#0061A0"></path>
                </g>
            </g>
        </g>
    </g>
</svg>