<?xml version="1.0" encoding="utf-8"?>
<!-- Generator: Adobe Illustrator 26.0.3, SVG Export Plug-In . SVG Version: 6.00 Build 0)  -->
<svg version="1.1" id="Layer_1" xmlns="http://www.w3.org/2000/svg" xmlns:xlink="http://www.w3.org/1999/xlink" x="0px" y="0px"
	 viewBox="0 0 132 120" style="enable-background:new 0 0 132 120;" xml:space="preserve">
<style type="text/css">
	.st0{fill:#F89723;}
</style>
<g>
	<path class="st0" d="M74.05,31.68l-12.94-0.01c-0.01,0-0.01,0-0.02,0c-14.02,0-26.67,11.81-28.22,26.33c0,0.01,0,0.01,0,0.02
		l-0.21,1.11c0,0.01,0,0.02-0.01,0.04c-0.73,6.98,1.19,13.57,5.41,18.56c4.3,5.08,10.45,7.88,17.31,7.89l12.94,0.01
		c0.01,0,0.01,0,0.02,0c2.63,0,5.22-0.42,7.69-1.2c0.16-0.05,0.33,0.03,0.4,0.18l0.35,0.77c0.25,0.55,0.56,1.08,0.98,1.5
		c0.98,0.98,2.25,1.46,3.56,1.46c0.95,0,1.92-0.25,2.8-0.75c2.77-1.56,4.03-5.04,2.81-7.76l-0.46-1.01
		c-0.06-0.14-0.03-0.29,0.08-0.39c5.42-4.8,9.21-11.6,10.01-19.13c0-0.01,0-0.02,0-0.02l0.21-1.11c0-0.01,0-0.02,0.01-0.04
		c0.73-6.98-1.19-13.57-5.41-18.56C87.07,34.49,80.92,31.69,74.05,31.68z M60.31,39.82h0.01l12.94,0.01c4.73,0,8.97,1.93,11.94,5.43
		c2.91,3.43,4.23,7.97,3.72,12.78c0,0.01,0,0.03-0.01,0.04l-0.21,1.11c0,0.01,0,0.01,0,0.02c-1.07,10.07-9.85,18.26-19.58,18.26
		c0,0-0.01,0-0.01,0l-12.95-0.01c-4.73,0-8.97-1.93-11.94-5.43C41.32,68.6,40,64.06,40.5,59.25c0-0.01,0-0.03,0.01-0.04l0.21-1.11
		c0-0.01,0-0.01,0-0.02C41.8,48.01,50.58,39.82,60.31,39.82z"/>
	<path class="st0" d="M53.94,65.28L53.94,65.28c2.34,0,4.45-1.97,4.7-4.39l0.57-4.41c0.12-1.18-0.2-2.29-0.92-3.14
		C57.56,52.47,56.53,52,55.37,52h0c-2.34,0-4.44,1.97-4.7,4.39L50.1,60.8c-0.12,1.18,0.2,2.29,0.92,3.14
		C51.75,64.8,52.79,65.28,53.94,65.28z"/>
	<path class="st0" d="M72.57,65.29L72.57,65.29c2.34,0,4.45-1.97,4.7-4.39l0.57-4.41c0.12-1.18-0.2-2.29-0.92-3.14
		c-0.73-0.86-1.77-1.34-2.92-1.34h0c-2.34,0-4.44,1.97-4.7,4.39l-0.57,4.41c-0.12,1.18,0.2,2.29,0.92,3.14
		C70.38,64.82,71.42,65.29,72.57,65.29z"/>
</g>
</svg>
